<?xml version="1.0" encoding="UTF-8"?>
<!DOCTYPE svg PUBLIC "-//W3C//DTD SVG 1.1//EN" "http://www.w3.org/Graphics/SVG/1.1/DTD/svg11.dtd">
<svg version="1.1" xmlns="http://www.w3.org/2000/svg" xmlns:xlink="http://www.w3.org/1999/xlink" x="0px" y="0px" width="20px" height="20px" viewBox="0 0 20 20" enable-background="new 0 0 20 20" xml:space="preserve">
<g id="outline">
</g>
<g id="icon_x5F_bg">
	<path fill="#7D7D7D" d="M0,0v20h20V0H0z"/>
</g>
<g id="icon_x5F_fg">
	<g>
		<polygon fill="#FFFFFF" points="20,12.042 19.398,12.759 18,11 17,11 17,16 20,16   "/>
		<polygon fill="#FFFFFF" points="12,10 10,13 8,10 5,10 5,17 15,17 15,10   "/>
	</g>
	<polygon fill="#FFFFFF" points="0,12.042 0.602,12.759 2,11 3,11 3,16 0,16  "/>
	<path display="none" fill="#F0EFF1" d="M0,11.041c1.657,0,3-1.343,3-3s-1.343-3-3-3V11.041z"/>
	<circle fill="#FFFFFF" cx="9.998" cy="6" r="2.998"/>
	<path fill="#FFFFFF" d="M0.5,5C0.329,5,0.162,5.018,0,5.05V9.95C0.162,9.982,0.329,10,0.5,10C1.881,10,3,8.881,3,7.5S1.881,5,0.5,5   z"/>
	<path fill="#FFFFFF" d="M19.5,5c0.171,0,0.338,0.018,0.5,0.05V9.95C19.838,9.982,19.671,10,19.5,10C18.119,10,17,8.881,17,7.5   S18.119,5,19.5,5z"/>
</g>
</svg>